<svg width="520" height="519" xmlns="http://www.w3.org/2000/svg" xmlns:xlink="http://www.w3.org/1999/xlink"
    xml:space="preserve" overflow="hidden">
    <defs>
        <clipPath id="clip0">
            <rect x="1018" y="1063" width="520" height="519" />
        </clipPath>
    </defs>
    <g clip-path="url(#clip0)" transform="translate(-1018 -1063)">
        <rect x="1018" y="1063" width="520" height="519" />
        <path d="M1018 1506 1140.29 1322.5 1018 1139 1109.71 1139 1232 1322.5 1109.71 1506 1018 1506Z" fill="#A4A4A4"
            fill-rule="evenodd" />
        <path
            d="M1140 1506 1262.19 1322.5 1140 1139 1231.64 1139 1476 1506 1384.37 1506 1308.01 1391.32 1231.63 1506 1140 1506Z"
            fill="#FFFFFF" fill-rule="evenodd" />
        <path
            d="M1436 1399 1395.2 1337.79 1538 1337.79 1538 1399 1436 1399ZM1374.8 1307.2 1334 1246 1538 1246 1538 1307.2 1374.8 1307.2Z"
            fill="#7F0080" fill-rule="evenodd" />
    </g>
</svg>
