<svg width="520" height="520" xmlns="http://www.w3.org/2000/svg" xmlns:xlink="http://www.w3.org/1999/xlink" xml:space="preserve" overflow="hidden"><defs><clipPath id="clip0"><rect x="3032" y="981" width="520" height="520"/></clipPath></defs><g clip-path="url(#clip0)" transform="translate(-3032 -981)"><rect x="3032" y="981" width="520" height="520" fill="#BBBBBB"/><path d="M3032 1165 3254 1498 3161.85 1498 3032 1498Z" fill-rule="evenodd"/><path d="M3329 981 3552 981 3552 1314Z" fill-rule="evenodd"/><path d="M3032 1429 3154.29 1246 3032 1063 3123.71 1063 3246 1246 3123.71 1429 3032 1429Z" fill="#BAF485" fill-rule="evenodd"/><path d="M3154 1429 3276.19 1246 3154 1063 3245.64 1063 3490 1429 3398.37 1429 3322.01 1314.63 3245.63 1429 3154 1429Z" fill="#FFFFFF" fill-rule="evenodd"/><path d="M3450 1322 3409.2 1260.79 3552 1260.79 3552 1322 3450 1322ZM3388.8 1230.2 3348 1169 3552 1169 3552 1230.2 3388.8 1230.2Z" fill="#BAF485" fill-rule="evenodd"/></g></svg>