<svg width="520" height="520" xmlns="http://www.w3.org/2000/svg" xmlns:xlink="http://www.w3.org/1999/xlink" xml:space="preserve" overflow="hidden"><defs><clipPath id="clip0"><rect x="2384" y="1611" width="520" height="520"/></clipPath></defs><g clip-path="url(#clip0)" transform="translate(-2384 -1611)"><rect x="2384" y="1611" width="520" height="520"/><path d="M2384 2131 2384 1611 2514.09 1611 2861 2131 2730.92 2131 2514.09 2131 2384 2131Z" fill="#3AA740" fill-rule="evenodd"/><path d="M2384 2059 2506.29 1876 2384 1693 2475.71 1693 2598 1876 2475.71 2059 2384 2059Z" fill="#A8D47A" fill-rule="evenodd"/><path d="M2506 2059 2628.19 1876 2506 1693 2597.64 1693 2842 2059 2750.37 2059 2674.01 1944.63 2597.63 2059 2506 2059Z" fill="#FFFFFF" fill-rule="evenodd"/><path d="M2802 1952 2761.2 1891.19 2904 1891.19 2904 1952 2802 1952ZM2740.8 1860.8 2700 1800 2904 1800 2904 1860.8 2740.8 1860.8Z" fill="#AAABAA" fill-rule="evenodd"/></g></svg>