<svg width="520" height="520" xmlns="http://www.w3.org/2000/svg" xmlns:xlink="http://www.w3.org/1999/xlink" xml:space="preserve" overflow="hidden"><defs><clipPath id="clip0"><rect x="1027" y="373" width="520" height="520"/></clipPath></defs><g clip-path="url(#clip0)" transform="translate(-1027 -373)"><rect x="1027" y="373" width="520" height="520" fill="#52D2ED"/><path d="M1027 893 1027 373 1157.09 373 1504 893 1373.92 893 1157.09 893 1027 893Z" fill="#F47B9D" fill-rule="evenodd"/><path d="M1027 559 1249 893 1156.85 893 1027 893Z" fill="#C6D1D2" fill-rule="evenodd"/><path d="M1392 375 1547 375 1547 608Z" fill="#C6D1D2" fill-rule="evenodd"/><path d="M1027 821 1149.29 637.503 1027 454 1118.71 454 1241 637.503 1118.71 821 1027 821Z" fill="#F09F9B" fill-rule="evenodd"/><path d="M1149 821 1271.19 637.503 1149 454 1240.64 454 1485 821 1393.37 821 1317.01 706.317 1240.63 821 1149 821Z" fill="#E3F09E" fill-rule="evenodd"/><path d="M1445 713.995 1404.2 652.792 1547 652.792 1547 714 1445 714ZM1383.8 622.203 1343 561 1547 561 1547 622.203 1383.8 622.203Z" fill="#75EEEA" fill-rule="evenodd"/></g></svg>