<svg width="712" height="711" xmlns="http://www.w3.org/2000/svg" xmlns:xlink="http://www.w3.org/1999/xlink" xml:space="preserve" overflow="hidden"><defs><clipPath id="clip0"><rect x="1208" y="1262" width="712" height="711"/></clipPath></defs><g clip-path="url(#clip0)" transform="translate(-1208 -1262)"><rect x="1208" y="1262" width="712" height="711" fill="#FFD900"/><path d="M1339.85 1488.03 1324.41 1516.43C1311.25 1547.5 1303.98 1581.65 1303.98 1617.5 1303.98 1653.35 1311.25 1687.51 1324.41 1718.57L1339.85 1746.97 1426.34 1617.5ZM1564 1357.84C1492.2 1357.84 1427.19 1386.91 1380.14 1433.9L1379.78 1434.33 1395.75 1434.33 1518.11 1617.5 1395.75 1800.67 1379.78 1800.67 1380.14 1801.1C1427.19 1848.09 1492.2 1877.16 1564 1877.16 1635.8 1877.16 1700.81 1848.09 1747.86 1801.1L1748.22 1800.67 1671.07 1800.67 1594.6 1686.19 1518.11 1800.67 1426.34 1800.67 1548.7 1617.5 1426.34 1434.33 1518.11 1434.33 1756.3 1790.89 1779.61 1762.68C1793.63 1741.96 1804.73 1719.11 1812.33 1694.71L1812.54 1693.83 1722.05 1693.83 1722.05 1693.82 1681.26 1632.76 1822.86 1632.76 1824.02 1617.5 1823.25 1602.24 1660.87 1602.24 1620.08 1541.18 1811.28 1541.18 1803.59 1516.43C1764.11 1423.24 1671.7 1357.84 1564 1357.84ZM1564 1262C1760.61 1262 1920 1421.16 1920 1617.5 1920 1813.84 1760.61 1973 1564 1973 1367.39 1973 1208 1813.84 1208 1617.5 1208 1421.16 1367.39 1262 1564 1262Z" fill="#7A00AB" fill-rule="evenodd"/></g></svg>